<?xml version="1.0" encoding="UTF-8"?>
<svg version="1.1" xmlns="http://www.w3.org/2000/svg" width="1288" height="955">
<path d="M0 0 C0.66 0.33 1.32 0.66 2 1 C1.3125 2.9375 1.3125 2.9375 0 5 C-2.625 5.75 -2.625 5.75 -5 6 C-5.33 6.99 -5.66 7.98 -6 9 C-8.30078125 10.5078125 -8.30078125 10.5078125 -11.3125 12.125 C-17.39270781 15.55228695 -22.82630252 19.48179193 -28.34472656 23.73925781 C-31.42272311 26.08361979 -34.56008757 28.34726291 -37.6875 30.625 C-50.85023748 40.25956407 -63.2954089 50.54450015 -75.30078125 61.5859375 C-78.94247715 64.8429101 -82.7406219 67.88790376 -86.546875 70.94921875 C-88.68137529 72.73363381 -90.63291171 74.56265971 -92.5625 76.5625 C-93.7690625 77.7690625 -93.7690625 77.7690625 -95 79 C-95.66 79 -96.32 79 -97 79 C-97 79.66 -97 80.32 -97 81 C-98.15398191 82.1774455 -99.3141271 83.34940088 -100.50244141 84.4921875 C-103.29054597 87.29938245 -105.71120826 90.41897643 -108.1875 93.5 C-108.75557373 94.20487549 -109.32364746 94.90975098 -109.90893555 95.63598633 C-111.61058129 97.75366952 -113.30601306 99.87618793 -115 102 C-115.47727539 102.59474121 -115.95455078 103.18948242 -116.44628906 103.80224609 C-127.77429789 117.96019749 -136.31349444 132.87746262 -142.625 149.875 C-143.19734375 151.37353516 -143.19734375 151.37353516 -143.78125 152.90234375 C-157.91211161 190.66585322 -158.31810563 236.80171594 -141.94677734 273.984375 C-138.70655771 280.88258368 -134.89870593 287.45850473 -131 294 C-130.35160156 295.11632812 -129.70320312 296.23265625 -129.03515625 297.3828125 C-123.92734588 305.65465762 -117.32891408 311.74811965 -110 318 C-108.6078125 319.22396484 -108.6078125 319.22396484 -107.1875 320.47265625 C-95.77991251 329.89574837 -82.38141328 336.71623843 -68 340 C-67.20609863 340.18498047 -66.41219727 340.36996094 -65.59423828 340.56054688 C-50.15610979 344.10323504 -36.61165865 346.11863429 -20.875 343.25 C-19.86598633 343.06808105 -18.85697266 342.88616211 -17.81738281 342.69873047 C-5.32709551 340.38844592 6.11979218 337.85580347 17 331 C17.96421875 330.41347656 18.9284375 329.82695312 19.921875 329.22265625 C38.09321988 317.71256863 49.47808798 302.367305 60 284 C60.98282331 282.30193884 61.96591042 280.60403035 62.94921875 278.90625 C67.45863804 271.08963868 71.90672822 263.2607469 76.0625 255.25 C79.08463241 249.517492 82.38334147 244.02158582 85.875 238.5625 C86.35203369 237.80936523 86.82906738 237.05623047 87.32055664 236.28027344 C88.49053019 234.48212476 89.73846638 232.73513968 91 231 C91.66 231 92.32 231 93 231 C93.66 229.68 94.32 228.36 95 227 C96.32 227.33 97.64 227.66 99 228 C98.45865928 231.89765319 97.39582337 233.93334609 95 237 C94.28837557 238.64797236 93.60968047 240.31165408 93 242 C92.34 242 91.68 242 91 242 C90.938125 242.9075 90.87625 243.815 90.8125 244.75 C90.3105257 248.32118862 89.11602439 251.3209896 87.6875 254.625 C82.93506651 265.70488096 80.39688915 276.5435793 78.7109375 288.421875 C78.2664932 291.50287547 77.67604776 294.49607557 76.953125 297.5234375 C75.93151884 301.98100382 75.55572805 306.31268407 75.375 310.875 C75.33850342 311.72594238 75.30200684 312.57688477 75.2644043 313.45361328 C74.06483393 344.91213555 76.23162991 375.84312635 80.58496094 406.97729492 C80.90215064 409.2873689 81.18686457 411.60192448 81.45703125 413.91796875 C84.06098524 435.00691946 88.82918981 455.6965294 95 476 C95.65857536 478.23142992 96.31066828 480.46466461 96.96191406 482.69824219 C97.5560821 484.72807478 98.16067235 486.75460959 98.765625 488.78125 C99.66973149 491.83369956 100.52432476 494.89670603 101.359375 497.96875 C104.2762667 508.62784878 107.70701111 518.89956182 111.74609375 529.18359375 C113.88825758 534.65102124 115.8840089 540.16631253 117.87524414 545.69018555 C122.0587839 557.29275726 126.46631042 568.75603012 131.25 580.125 C135.29411452 589.74066394 139.010596 599.37474373 142.36328125 609.25 C150.73542548 633.83965758 160.71474869 658.18734413 171.56103516 681.78564453 C174.88604621 689.02693144 177.75972655 696.04799948 179.9453125 703.7265625 C181.99223018 710.07958849 184.91230726 716.07914506 187.68994141 722.13964844 C190.35521204 727.95893855 192.99477135 733.78980452 195.625 739.625 C196.05318527 740.57419815 196.05318527 740.57419815 196.49002075 741.54257202 C200.14702813 749.66510661 203.59844451 757.79738666 206.57324219 766.19506836 C207.71819483 769.3318892 209.02560769 772.37347716 210.40823364 775.41413879 C214.28738295 783.95343369 217.46063008 792.63639127 220.38037109 801.54418945 C221.12235696 803.80444871 221.87863971 806.05954727 222.63671875 808.31445312 C228.63834324 826.32127648 232.92711675 844.30193555 235.8125 863.0625 C235.96541504 864.03892456 236.11833008 865.01534912 236.27587891 866.0213623 C238.61264172 881.10853445 240.92192202 896.71654184 239 912 C238.67 912.33 238.34 912.66 238 913 C237.92811529 915.29581781 238.00353568 917.57517069 238.0625 919.87109375 C238 922 238 922 237 924 C235.35 923.67 233.7 923.34 232 923 C231.91024902 922.38406982 231.82049805 921.76813965 231.72802734 921.13354492 C227.07378214 889.64059188 220.92234442 856.44766724 207.9296875 827.13378906 C206.73999333 824.403241 205.606101 821.65119274 204.46875 818.8984375 C199.40700282 806.69552268 194.18251853 794.67809056 188 783 C187.25363281 781.57300781 187.25363281 781.57300781 186.4921875 780.1171875 C182.28956119 772.24013381 177.64419674 764.62175833 173 757 C172.64615234 756.41895508 172.29230469 755.83791016 171.92773438 755.23925781 C169.63582516 751.4819942 167.32217918 747.73861212 165 744 C164.46117187 743.1234375 163.92234375 742.246875 163.3671875 741.34375 C158.39592924 733.37052419 152.95116264 725.74179398 147.49462891 718.09716797 C146.10927194 716.15332341 144.73100162 714.20470941 143.35546875 712.25390625 C135.26113803 700.79877155 126.76994601 689.77665436 117.65234375 679.1171875 C115.22647724 676.27812875 112.85585076 673.39757045 110.5 670.5 C102.61700112 660.84507039 94.60668227 651.42765688 86.03442383 642.37597656 C83.23256775 639.41444613 80.49336675 636.42698612 77.84375 633.328125 C73.2637856 628.06091164 68.32837294 623.14233586 63.39501953 618.2097168 C61.76172552 616.57424118 60.1366153 614.93092292 58.51171875 613.28710938 C51.9878966 606.72868989 45.27697976 600.7254866 38 595 C36.41532074 593.70998493 34.83179664 592.41854808 33.25 591.125 C3.37903811 567.37899875 -38.65058875 538.43541205 -78.546875 539.69140625 C-91.04874036 541.26409313 -105.09058816 545.82913815 -114 555 C-114.66 555 -115.32 555 -116 555 C-116.37125 555.7734375 -116.37125 555.7734375 -116.75 556.5625 C-117.73341597 558.48016115 -118.81809902 560.34590485 -119.9375 562.1875 C-128.12945457 576.61512148 -126.60845876 592.6913833 -122.40966797 608.17724609 C-120.87796406 613.22654647 -118.96386997 618.10621399 -117 623 C-116.69352539 623.79599609 -116.38705078 624.59199219 -116.07128906 625.41210938 C-108.48693553 645.0413023 -97.92702876 663.00902385 -84.47753906 679.19238281 C-82.16424334 682.02246238 -79.94051823 684.92056593 -77.70727539 687.81396484 C-75.3354954 690.88637591 -72.94698401 693.94554591 -70.55712891 697.00390625 C-69.24498521 698.68595186 -67.94002009 700.37359381 -66.63671875 702.0625 C-56.26120492 715.66758146 -56.26120492 715.66758146 -43 726 C-43 726.66 -43 727.32 -43 728 C-42.34 728 -41.68 728 -41 728 C-41 728.66 -41 729.32 -41 730 C-40.17242187 730.34804687 -40.17242187 730.34804687 -39.328125 730.703125 C-36.37489769 732.34821135 -34.20887779 734.43162951 -31.75 736.75 C-26.44519317 741.65765552 -21.00609477 745.99593682 -15 750 C-15 750.66 -15 751.32 -15 752 C-14.01 752 -13.02 752 -12 752 C-12 752.66 -12 753.32 -12 754 C-11.113125 754.268125 -10.22625 754.53625 -9.3125 754.8125 C-4.9971228 756.35952202 -0.83294431 758.2724417 2 762 C2 763.32 2 764.64 2 766 C-3.36387125 765.03581372 -7.99572585 763.11742965 -13 761 C-13.63631348 760.73832031 -14.27262695 760.47664062 -14.92822266 760.20703125 C-26.20433317 755.5523118 -36.49451212 749.98293884 -46.765625 743.41552734 C-49.05683592 741.96399316 -51.36794955 740.55027547 -53.6875 739.14453125 C-55.16667704 738.24220451 -56.64584411 737.33986142 -58.125 736.4375 C-59.16551514 735.81125732 -59.16551514 735.81125732 -60.22705078 735.17236328 C-61.85268482 734.16899347 -63.4321757 733.09149621 -65 732 C-65 731.34 -65 730.68 -65 730 C-65.99966797 729.69255859 -65.99966797 729.69255859 -67.01953125 729.37890625 C-71.1012761 727.49049743 -74.24626395 724.80350165 -77.6875 721.9375 C-78.39285889 721.35766357 -79.09821777 720.77782715 -79.82495117 720.18041992 C-84.69881254 716.14997222 -89.44512112 712.00874306 -94.08203125 707.70703125 C-96.09282303 705.8378579 -96.09282303 705.8378579 -99 704 C-99 703.34 -99 702.68 -99 702 C-99.56847656 701.74992188 -100.13695312 701.49984375 -100.72265625 701.2421875 C-103.33732713 699.81600338 -105.24578783 698.14300143 -107.4375 696.125 C-108.32050781 695.31289063 -109.20351562 694.50078125 -110.11328125 693.6640625 C-111.06589844 692.78492188 -112.01851562 691.90578125 -113 691 C-113.98355469 690.12085938 -114.96710938 689.24171875 -115.98046875 688.3359375 C-128.51823786 677.0781766 -139.80573113 664.57438421 -151 652 C-151.71027344 651.21882812 -152.42054688 650.43765625 -153.15234375 649.6328125 C-165.99397159 635.504765 -177.55921106 620.7387811 -188.30078125 604.94921875 C-189.98373481 602.47653939 -191.6847392 600.01972089 -193.41796875 597.58203125 C-198.35577379 590.60451328 -202.77958818 583.45180164 -206.90820312 575.97314453 C-208.11160437 573.79830355 -209.32861656 571.63139529 -210.546875 569.46484375 C-218.39599207 555.4729394 -218.39599207 555.4729394 -221.8671875 548.32421875 C-222.683591 546.64918399 -223.52534074 544.98641885 -224.3828125 543.33203125 C-231.68946225 529.15866093 -236.90720692 514.60720024 -241.6875 499.4375 C-241.92165619 498.69772919 -242.15581238 497.95795837 -242.39706421 497.19577026 C-246.7860471 483.27540103 -250.71117153 469.32336433 -252.9375 454.875 C-253.26770928 452.80981264 -253.59846533 450.74471265 -253.9296875 448.6796875 C-254.10081055 447.60170898 -254.27193359 446.52373047 -254.44824219 445.41308594 C-255.02979182 441.81571257 -255.6403541 438.22419042 -256.2578125 434.6328125 C-257.35313085 428.25986472 -258.40613136 421.88112393 -259.43164062 415.49658203 C-259.78100803 413.34725217 -260.13960944 411.19936908 -260.51367188 409.05419922 C-266.54795707 374.25690522 -263.85814393 338.42206042 -257 304 C-256.74070956 302.66748302 -256.48143174 301.33496358 -256.22216797 300.00244141 C-244.58440205 241.6785507 -218.95068708 184.97035232 -181 139 C-180.54238281 138.44473633 -180.08476562 137.88947266 -179.61328125 137.31738281 C-172.51185696 128.73898162 -165.25077778 120.22750993 -157.35546875 112.3671875 C-154.91509102 109.99778517 -154.91509102 109.99778517 -152.6875 107.125 C-150.10022937 103.95193224 -147.11096296 101.38990523 -143.99609375 98.74609375 C-142.10697829 97.09357983 -140.36453343 95.37008364 -138.625 93.5625 C-136 91 -136 91 -134 91 C-134 90.34 -134 89.68 -134 89 C-132.70703125 87.66015625 -132.70703125 87.66015625 -130.8125 86.0625 C-130.08289063 85.44246094 -129.35328125 84.82242188 -128.6015625 84.18359375 C-127.74304688 83.46300781 -126.88453125 82.74242188 -126 82 C-124.99710938 81.14535156 -123.99421875 80.29070312 -122.9609375 79.41015625 C-117.03210168 74.35943393 -111.05948725 69.36597209 -105.015625 64.453125 C-102.70706555 62.57517767 -100.40622354 60.68905129 -98.109375 58.796875 C-91.72581198 53.55191612 -85.37403696 48.35926879 -78.52734375 43.72265625 C-76.04764204 42.03247317 -73.61723156 40.28244654 -71.18945312 38.51879883 C-53.18956615 25.4829275 -34.12259716 13.83759184 -14.625 3.1875 C-13.84656738 2.74849365 -13.06813477 2.3094873 -12.26611328 1.85717773 C-7.79474981 -0.53045782 -5.0742961 -1.61733607 0 0 Z M-174 164 C-201.59273474 209.57793448 -219.08317699 262.80809517 -217.6875 316.25 C-217.66355164 317.22432983 -217.63960327 318.19865967 -217.6149292 319.20251465 C-217.10381739 339.62099136 -216.57016769 360.01341411 -212 380 C-211.84772949 380.67885254 -211.69545898 381.35770508 -211.53857422 382.05712891 C-209.88365041 389.36202656 -208.0463019 396.41803182 -205.05102539 403.30786133 C-203.87452879 406.32138701 -203.0310201 409.34180031 -202.1875 412.46484375 C-200.16934763 419.62146525 -197.72503584 426.52215342 -195 433.4375 C-194.29085449 435.23743408 -194.29085449 435.23743408 -193.56738281 437.07373047 C-190.32423205 445.122061 -186.75654115 452.92859247 -182.75 460.625 C-182.27949219 461.52919678 -181.80898437 462.43339355 -181.32421875 463.36499023 C-175.29053616 475.05880545 -175.29053616 475.05880545 -166 484 C-165.34 484 -164.68 484 -164 484 C-163.7525 484.53625 -163.505 485.0725 -163.25 485.625 C-159.13182639 493.44952986 -153.91764231 498.68581538 -145.8125 502.5 C-139.0786352 503.38312981 -131.69044247 503.96473794 -125.52734375 500.68359375 C-119.45985089 495.64488581 -113.44344593 487.85876116 -112 480 C-111.53486999 469.67411383 -116.36157214 460.79639265 -122.875 453.0625 C-126.40773132 449.34027351 -130.22117036 445.99787206 -135 444 C-136.32 444 -137.64 444 -139 444 C-139 442.68 -139 441.36 -139 440 C-124.38763374 439.60566328 -110.08735989 440.14316298 -97.8125 448.875 C-93.38303303 452.00075861 -88.63984452 453.84201234 -83.60571289 455.73632812 C-78.67129959 457.6289456 -74.34777189 459.98362068 -69.953125 462.8984375 C-67.93821679 464.24562671 -67.93821679 464.24562671 -65 464 C-65 464.66 -65 465.32 -65 466 C-64.46890625 466.26554687 -63.9378125 466.53109375 -63.390625 466.8046875 C-59.92708333 468.53645833 -56.46354167 470.26822917 -53 472 C-53 472.66 -53 473.32 -53 474 C-50.35261084 475.4606285 -49.10551666 476 -46 476 C-46 476.66 -46 477.32 -46 478 C-45.40574219 478.27972656 -44.81148437 478.55945313 -44.19921875 478.84765625 C-38.51117576 481.59879368 -33.20295643 484.67074333 -27.93359375 488.15625 C-25.55554325 489.65084365 -23.18633736 490.97555982 -20.7109375 492.29296875 C-15.79675179 494.99702229 -11.54187086 498.29622284 -7.1875 501.8125 C-2.13169505 505.82469696 2.90011983 509.73051343 8.3125 513.25 C25.99701553 524.81388293 41.08088507 539.28266528 54 556 C55.5991874 557.96240154 57.20339809 559.92071978 58.8125 561.875 C60.89048547 564.41097498 62.9464426 566.92703775 64.88671875 569.5703125 C66.92813005 572.14074484 66.92813005 572.14074484 69.890625 573.88671875 C73.6231441 576.42351879 76.0077998 579.27224453 78.75 582.8125 C79.2665918 583.46903564 79.78318359 584.12557129 80.31542969 584.80200195 C85.16669642 591.05221439 89.55638984 597.57555291 93.84619141 604.21875 C95.68542647 607.05816156 97.56170669 609.87210167 99.4375 612.6875 C100.05496094 613.61949219 100.67242187 614.55148437 101.30859375 615.51171875 C102.38391628 617.09365975 103.50025249 618.64903953 104.66796875 620.1640625 C106 622 106 622 106.875 624.6875 C107.24625 625.450625 107.6175 626.21375 108 627 C110.54775306 627.89386164 110.54775306 627.89386164 113 628 C114.40942713 623.77171861 112.68296752 620.99732216 111.0625 617.0625 C110.58478149 615.8712854 110.58478149 615.8712854 110.09741211 614.65600586 C109.4177204 612.96314197 108.73408752 611.27185607 108.046875 609.58203125 C107.02843951 607.07014372 106.02690328 604.55224411 105.03125 602.03125 C104.37531626 600.37487472 103.71906545 598.71862498 103.0625 597.0625 C102.73515869 596.2365332 102.40781738 595.41056641 102.07055664 594.55957031 C100.36014813 590.27959841 98.59150587 586.03808513 96.71484375 581.828125 C96.34415771 580.98628662 95.97347168 580.14444824 95.59155273 579.27709961 C94.88784235 577.68820309 94.17084499 576.10509285 93.43774414 574.52954102 C91.37653947 569.85508819 90.82306784 566.33595158 91.02929688 561.25317383 C90.97758713 557.27626363 89.72077733 553.69258334 88.5 549.9375 C88.23155273 549.08244873 87.96310547 548.22739746 87.68652344 547.34643555 C86.80497419 544.5596267 85.90280417 541.77998789 85 539 C84.39060562 537.08073532 83.78123086 535.16146441 83.171875 533.2421875 C77.24749728 514.82486793 70.69966533 496.37635503 61.68359375 479.21875 C60.49087175 476.93846478 59.36613202 474.67481312 58.28515625 472.34375 C48.32865448 451.10858751 33.81071151 431.15086881 17.84765625 414 C16.29339547 412.31758664 14.85494426 410.608865 13.4375 408.8125 C10.25698101 405.14267039 6.72472703 402.1039392 3 399 C2.22398437 398.33613281 1.44796875 397.67226563 0.6484375 396.98828125 C-8.46119104 389.39692414 -17.78329324 383.22834966 -30 383 C-36.56522473 383.90746407 -41.44189229 386.2139869 -46 391 C-48.29839852 394.96996108 -48.6032585 398.47556123 -48 403 C-46.63100066 405.40624731 -45.09476428 407.60414543 -43.46875 409.84375 C-41.70824356 412.42832328 -40.7744047 414.97982169 -40 418 C-47.45421608 415.33756525 -53.93381841 411.86579732 -60.5625 407.5625 C-61.51705078 406.94850342 -62.47160156 406.33450684 -63.45507812 405.7019043 C-71.64010806 400.36892262 -79.42293023 394.61263902 -87.06689453 388.53613281 C-88.97289947 387.0215353 -90.88881164 385.52051985 -92.80859375 384.0234375 C-95.69712997 381.7687926 -98.57565926 379.50197639 -101.44824219 377.22705078 C-102.93375082 376.05238647 -104.42380493 374.88347737 -105.9140625 373.71484375 C-110.20107185 370.33202664 -114.1843462 366.91606574 -118 363 C-119.2246747 361.95305587 -120.45438681 360.91199181 -121.6875 359.875 C-130.46598312 352.25158045 -137.76800701 343.06030582 -145 334 C-145.60585937 333.25105469 -146.21171875 332.50210938 -146.8359375 331.73046875 C-148.59965846 329.51584175 -150.31048054 327.27171874 -152 325 C-152.61359375 324.17886719 -153.2271875 323.35773438 -153.859375 322.51171875 C-163.2816972 309.18855517 -170.31715154 293.88124245 -174 278 C-174.42121637 276.31070781 -174.84455935 274.62194508 -175.26953125 272.93359375 C-177.39045606 264.39943271 -179.3918362 255.90805522 -180.54296875 247.1796875 C-180.80855314 245.33194652 -181.10545486 243.48716426 -181.48144531 241.65869141 C-186.57435832 216.56311204 -181.95605654 191.86816962 -174 168 C-173.64813348 166.6714373 -173.30415567 165.34029035 -173 164 C-173.33 164 -173.66 164 -174 164 Z " fill="#F7F8F8" transform="translate(264,22)"/>
<path d="M0 0 C0 0.66 0 1.32 0 2 C0.51691406 2.09667969 1.03382813 2.19335938 1.56640625 2.29296875 C4.87806043 3.25510263 7.86779428 4.76956045 10.9375 6.3125 C11.84918945 6.75625977 11.84918945 6.75625977 12.77929688 7.20898438 C16.58834786 9.11145537 19.71151288 11.3214742 23 14 C24.91318984 15.12570954 26.8512416 16.21029675 28.8125 17.25 C30.27623047 18.03117187 30.27623047 18.03117187 31.76953125 18.828125 C32.50558594 19.21484375 33.24164062 19.6015625 34 20 C34 20.66 34 21.32 34 22 C34.84433594 22.2371875 35.68867187 22.474375 36.55859375 22.71875 C40.44525485 24.16577025 43.66643398 26.17112914 47.0625 28.5 C47.71661865 28.94287354 48.3707373 29.38574707 49.04467773 29.84204102 C54.98715364 33.90794558 60.70369171 38.23462802 66.35107422 42.69824219 C68.07383246 44.05828763 69.80374876 45.40879886 71.53515625 46.7578125 C77.8752927 51.70560188 84.15878476 56.71445385 90.36328125 61.83203125 C92.1222351 63.27828219 93.89054984 64.7132222 95.66796875 66.13671875 C102.0289382 71.24935942 108.03758958 76.65111657 114 82.21484375 C116.36007542 84.41527566 118.75159287 86.57081457 121.1875 88.6875 C122.10402344 89.48414062 122.10402344 89.48414062 123.0390625 90.296875 C124.00972656 91.13992187 124.00972656 91.13992187 125 92 C130.43831353 96.73046954 135.57343182 101.45531679 140.22265625 106.96875 C142.22113626 109.25272715 144.33781965 111.3706352 146.5 113.5 C159.42948865 126.32101978 170.75591916 140.96934784 181 156 C181.40863281 156.59200195 181.81726562 157.18400391 182.23828125 157.79394531 C200.00337566 183.6853329 215.56928172 212.81781856 225.24121094 242.68701172 C225.95638333 244.86704492 226.70774146 247.0298009 227.4765625 249.19140625 C234.7171719 269.73346237 239.9076653 290.71949623 243.4375 312.1875 C243.62590454 313.33131134 243.62590454 313.33131134 243.81811523 314.49822998 C246.36159005 330.12285493 247.2387578 345.30821618 247.25 361.125 C247.25100708 362.10764832 247.25201416 363.09029663 247.25305176 364.10272217 C247.24322603 378.29021117 246.74542843 392.08668837 244.46630859 406.11621094 C243.9591473 409.2526451 243.50248397 412.39418016 243.05078125 415.5390625 C241.18539694 428.3343894 238.97707843 441.04647487 236.44824219 453.7265625 C236.03642489 455.81525678 235.64300176 457.90625893 235.2578125 460 C229.8508424 488.6751673 220.02895586 516.9325885 207 543 C206.37375732 544.25296875 206.37375732 544.25296875 205.73486328 545.53125 C202.93189278 551.08159856 199.99881543 556.55337643 197 562 C196.31019043 563.26191162 196.31019043 563.26191162 195.60644531 564.54931641 C188.45524563 577.57108455 180.58592336 589.88294884 172 602 C171.11390193 603.26775317 170.22844483 604.53595469 169.34375 605.8046875 C161.09243221 617.57454651 152.34140066 628.79926559 142.51953125 639.30078125 C136.37940119 645.84481596 136.37940119 645.84481596 131 653 C130.34 653 129.68 653 129 653 C129 653.66 129 654.32 129 655 C128.34 655 127.68 655 127 655 C126.77570313 655.54140625 126.55140625 656.0828125 126.3203125 656.640625 C124.58542142 659.74084456 122.29425131 662.1803105 119.875 664.75 C119.09298218 665.5867627 119.09298218 665.5867627 118.29516602 666.44042969 C108.07065132 677.3016467 97.73743013 687.77221776 86 697 C82.47276758 699.97944253 79.02459449 703.03698381 75.66015625 706.19921875 C67.56617099 713.75766213 58.88928855 720.40942948 50 727 C49.06929687 727.69351563 48.13859375 728.38703125 47.1796875 729.1015625 C42.11936972 732.75901991 36.81956834 735.90958296 31.37329102 738.95043945 C27.40447891 741.16898032 23.57384106 743.53596118 19.75 746 C14.51972438 749.24238489 9.16510847 751.95645663 3.5625 754.5 C2.80485352 754.850625 2.04720703 755.20125 1.26660156 755.5625 C-2.99389057 757.43840244 -6.24850782 758.42168552 -11 758 C-11.38218767 756.34385343 -11.71395102 754.67542976 -12 753 C-11 752 -11 752 -8.4375 751.9375 C-7.633125 751.958125 -6.82875 751.97875 -6 752 C-6 751.01 -6 750.02 -6 749 C-3.9453125 747.4921875 -3.9453125 747.4921875 -1.125 745.875 C4.92319279 742.19484162 9.85188283 737.824229 15 733 C17.09235723 731.15673291 19.19892991 729.33119628 21.30859375 727.5078125 C23.03080564 726.01648381 23.03080564 726.01648381 24.59765625 724.3046875 C26 723 26 723 28 723 C28 722.34 28 721.68 28 721 C29.36328125 719.66015625 29.36328125 719.66015625 31.3125 718.0625 C40.89654712 709.86206532 48.93143308 700.96487251 56.52587891 690.94482422 C58.08657765 688.88577715 59.6575391 686.8348729 61.23046875 684.78515625 C62.90219148 682.606486 64.5712111 680.42602536 66.23168945 678.23876953 C68.65509074 675.04669171 71.08467409 671.86970591 73.625 668.76953125 C84.46259633 655.34411144 92.7246114 640.03710421 99 624 C99.52412907 622.75515202 100.0515904 621.51170285 100.58203125 620.26953125 C109.42804257 599.37243204 110.8693255 577.02273004 105 555 C104.61714844 553.50146484 104.61714844 553.50146484 104.2265625 551.97265625 C100.72360287 540.51572866 92.37170816 532.81831908 83.08984375 525.77734375 C82.40019531 525.19082031 81.71054688 524.60429688 81 524 C81 523.34 81 522.68 81 522 C79.14375 521.4121875 79.14375 521.4121875 77.25 520.8125 C73.4798634 519.56168786 69.84037733 518.12183104 66.1875 516.5625 C43.85999444 507.22197318 19.64507651 503.39328744 -4 510 C-5.13888672 510.30599121 -5.13888672 510.30599121 -6.30078125 510.61816406 C-31.81662248 517.51949592 -55.48158912 529.91135737 -75.625 547.1171875 C-78 549 -78 549 -80.25 550.0703125 C-82.36100229 550.93394484 -82.36100229 550.93394484 -83 554 C-84.17963309 555.14592929 -85.35978695 556.2913289 -86.54296875 557.43359375 C-94.41354868 565.89499469 -101.70253766 579.14433147 -101.3828125 590.8828125 C-100.43045565 596.14992898 -97.53315591 600.50943176 -93.75 604.1875 C-90.48731841 606.33790378 -88.04831513 606.78202241 -84.1875 607.25 C-83.02605469 607.39953125 -81.86460937 607.5490625 -80.66796875 607.703125 C-79.78753906 607.80109375 -78.90710938 607.8990625 -78 608 C-77.5597921 611.49021975 -77.82565457 612.75426622 -79.8984375 615.67578125 C-81.12433594 616.98095703 -81.12433594 616.98095703 -82.375 618.3125 C-83.18710937 619.19550781 -83.99921875 620.07851563 -84.8359375 620.98828125 C-87 623 -87 623 -89 623 C-89.22558594 623.55558594 -89.45117188 624.11117187 -89.68359375 624.68359375 C-91.38894414 627.68440319 -93.56706316 629.67937537 -96.0625 632.0625 C-100.63909575 636.51404806 -104.70560736 641.18489638 -108.6875 646.18359375 C-111.18870448 649.22982421 -113.81420669 652.11759475 -116.5 655 C-120.75763951 659.58107898 -124.77786842 664.2963062 -128.69921875 669.171875 C-130.73824913 671.67825529 -132.82388947 674.13612574 -134.93334961 676.58325195 C-145.65104583 689.05023405 -155.15840153 702.43808562 -164.54736328 715.91943359 C-165.94929052 717.92737039 -167.36231751 719.92706297 -168.77734375 721.92578125 C-175.47481433 731.44771741 -181.51947812 741.29077255 -187.41894531 751.32324219 C-189.05403721 754.09148609 -190.70856803 756.84735865 -192.3671875 759.6015625 C-198.72481886 770.19090647 -204.7852951 780.79981323 -210 792 C-210.34450195 792.73831055 -210.68900391 793.47662109 -211.04394531 794.23730469 C-213.35512856 799.22241295 -215.59931293 804.23445196 -217.80273438 809.26806641 C-218.61623907 811.12433017 -219.43545998 812.97809713 -220.25976562 814.82958984 C-226.95556437 829.92053837 -231.9683979 844.99918668 -236 861 C-236.2573291 861.99547852 -236.5146582 862.99095703 -236.77978516 864.01660156 C-241.37627172 881.84945572 -244.75171589 899.88376595 -248 918 C-250.31 918 -252.62 918 -255 918 C-255.21169736 897.41831268 -254.45043923 877.32003327 -251 857 C-250.83516113 856.01435059 -250.67032227 855.02870117 -250.50048828 854.01318359 C-245.03009235 821.93470088 -235.3095335 791.72889245 -222.29980469 761.97827148 C-219.89352102 756.47447795 -217.57431171 750.96675692 -215.44921875 745.34765625 C-213.20812952 739.43997623 -210.66639595 733.72560916 -208 728 C-199.22243912 708.97451333 -199.22243912 708.97451333 -192.1171875 689.29296875 C-190.69925963 685.11355198 -188.84997456 681.21299618 -186.93408203 677.24169922 C-179.35482329 661.41833447 -173.1016814 644.952259 -166.95019531 628.53271484 C-165.39665051 624.39179147 -163.8239772 620.25819204 -162.25 616.125 C-161.76152588 614.84109375 -161.76152588 614.84109375 -161.26318359 613.53125 C-158.61628722 606.5867587 -155.93230439 599.65691998 -153.24346924 592.72857666 C-146.349337 574.96094728 -139.53866097 557.16179518 -132.78572083 539.34002686 C-131.33943149 535.52398532 -129.89084387 531.70896869 -128.42626953 527.89990234 C-123.52692875 515.1528705 -119.07195296 502.46853888 -115.54516602 489.26928711 C-113.86293596 482.98018185 -111.98800752 476.80251767 -109.92138672 470.62915039 C-105.77588664 458.23230614 -102.80138966 445.89403944 -100.53369141 433.02490234 C-100.0254129 430.14403742 -99.48957718 427.2695217 -98.94921875 424.39453125 C-95.98578862 408.14519753 -94.30079983 391.75480206 -92.64894104 375.33094788 C-92.23899254 371.26734755 -91.79894971 367.21067557 -91.3046875 363.15625 C-88.40412797 338.57985494 -89.06944026 313.40239657 -93 289 C-93.1551709 288.00983887 -93.3103418 287.01967773 -93.47021484 285.99951172 C-95.52359091 273.12457164 -98.0002788 261.10347757 -103.75 249.3125 C-106.1562939 244.2497165 -106.4554686 240.55671698 -106 235 C-103.76171875 235.1015625 -103.76171875 235.1015625 -101 236 C-99.34581108 238.12988332 -98.09916502 240.03698835 -96.8125 242.375 C-96.43375732 243.03330811 -96.05501465 243.69161621 -95.66479492 244.36987305 C-92.12471566 250.5937356 -88.82433424 256.95102121 -85.51635742 263.30029297 C-82.54188795 269.00613458 -79.42774419 274.55233512 -76 280 C-75.08302328 281.48939249 -74.16639323 282.97899843 -73.25 284.46875 C-62.71593641 301.49742387 -51.84957896 316.18121633 -34 326 C-32.64074159 326.86706916 -31.28630565 327.74175843 -29.9375 328.625 C-21.30933264 333.9452691 -12.67180717 336.14780032 -2.77124023 337.86523438 C-0.5677617 338.2490834 1.63097404 338.65441377 3.83007812 339.0625 C15.29478615 341.14179641 25.22252733 341.4700782 36.6875 339.25 C37.64865723 339.06663086 38.60981445 338.88326172 39.60009766 338.69433594 C42.40407214 338.14751636 45.20268867 337.57986094 48 337 C49.09513916 336.77570313 49.09513916 336.77570313 50.21240234 336.546875 C70.95899012 332.14160298 88.16828629 320.69926904 102.57836914 305.47851562 C103.89006875 304.11433001 105.25175801 302.79868597 106.6171875 301.48828125 C118.35864256 289.22712244 126.78960037 270.83713188 131.9375 254.875 C132.20771973 254.04226563 132.47793945 253.20953125 132.75634766 252.3515625 C137.09698479 238.01289037 138.55680326 223.84301176 138.4375 208.9375 C138.43343643 207.73717636 138.43343643 207.73717636 138.42929077 206.51260376 C138.33391973 187.83264189 136.14820469 169.74408573 129.75683594 152.09912109 C129.21507677 150.59652584 128.68881569 149.08830711 128.17285156 147.57666016 C121.64585267 128.46084737 112.31757811 113.2092711 99.25390625 97.875 C95.74161825 93.74361405 92.5700101 89.4420796 89.453125 85.00390625 C88.0149836 82.91009183 88.0149836 82.91009183 86 81 C86 80.01 86 79.02 86 78 C85.2575 77.7525 84.515 77.505 83.75 77.25 C80.76976913 75.89534961 79.10080748 74.4898459 77 72 C77 71.34 77 70.68 77 70 C76.195625 69.65775391 76.195625 69.65775391 75.375 69.30859375 C72.26204915 67.59339879 69.67975369 65.37119856 67 63.0625 C66.43039551 62.57668457 65.86079102 62.09086914 65.27392578 61.59033203 C61.3993021 58.26417595 57.61939383 54.84644835 53.875 51.375 C43.8459599 42.09646559 33.07142985 33.97053393 22 26 C21.0399707 25.30777344 21.0399707 25.30777344 20.06054688 24.6015625 C18.18790832 23.25280554 16.3133851 21.90673734 14.4375 20.5625 C13.87828857 20.16168213 13.31907715 19.76086426 12.74291992 19.34790039 C10.06741168 17.44004512 7.37173539 15.5991149 4.59765625 13.83984375 C3.74042969 13.23269531 2.88320312 12.62554687 2 12 C2 11.34 2 10.68 2 10 C1.13375 9.7525 0.2675 9.505 -0.625 9.25 C-4.21060064 7.92199976 -6.96327987 6.31369152 -10 4 C-10 3.34 -10 2.68 -10 2 C-11.98 1.505 -11.98 1.505 -14 1 C-13.67 0.01 -13.34 -0.98 -13 -2 C-8.40306584 -3.97011464 -4.15253022 -2.30696123 0 0 Z M158 160 C159.03290656 165.07845724 160.28140203 169.90131292 161.9375 174.8125 C166.10070106 188.33120906 167.26210244 201.90225169 167.3125 216 C167.32071777 217.66313232 167.32071777 217.66313232 167.32910156 219.35986328 C167.27298401 225.82983037 166.67571816 231.96244277 165.46313477 238.31933594 C165.0045867 240.97345179 164.77753914 243.56263497 164.625 246.25 C164.0643002 252.92137724 162.36885833 259.27602529 160.61230469 265.71337891 C159.97387216 268.09757311 159.38092441 270.49057193 158.7890625 272.88671875 C152.30670349 298.24026773 139.94125431 320.03655242 122 339 C120.95337077 340.22494384 119.91160975 341.45406562 118.875 342.6875 C109.8076332 353.06225457 99.82974601 362.5001595 89 371 C87.71511955 372.04793288 86.43274565 373.09894351 85.15234375 374.15234375 C66.64160541 389.37169903 66.64160541 389.37169903 59.19921875 393.5859375 C58.11060547 394.28589844 58.11060547 394.28589844 57 395 C57 395.66 57 396.32 57 397 C56.35804688 397.21785156 55.71609375 397.43570313 55.0546875 397.66015625 C49.98878058 399.8821589 45.44004709 402.97667841 40.76953125 405.92382812 C36.28523588 408.71614987 31.91841467 411.06542356 27 413 C26.67 411.35 26.34 409.7 26 408 C26.66 408 27.32 408 28 408 C31.47930386 401.76961867 33.9946359 396.60555514 32 389.375 C28.66405575 383.74559409 24.61135185 381.17091729 18.3125 379.5 C8.90133322 377.99821807 -0.33920801 381.71669518 -8 387 C-14.17753304 391.64250968 -19.94946468 396.7685754 -25.6875 401.9375 C-26.48184448 402.64640381 -26.48184448 402.64640381 -27.29223633 403.36962891 C-28.56808286 404.53758278 -29.78964902 405.76430136 -31 407 C-31 407.66 -31 408.32 -31 409 C-31.66 409 -32.32 409 -33 409 C-57.80767524 434.79302683 -74.91800267 468.13379418 -88 501 C-88.81633296 503.02346707 -89.63273879 505.04690474 -90.44921875 507.0703125 C-99.08738589 524.77555486 -99.08738589 524.77555486 -101 543 C-98.57786902 541.4130866 -97.10330122 540.17226488 -95.6015625 537.66796875 C-84.32765343 518.88728608 -62.51204019 504.48816609 -44.30859375 493.08984375 C-41.09591921 491.06058651 -37.95330113 488.95083178 -34.8125 486.8125 C-29.38574236 483.17534067 -23.79619074 480.00647943 -18 477 C-16.3603125 476.13375 -16.3603125 476.13375 -14.6875 475.25 C-11.84555539 473.9281653 -8.99229291 472.9261859 -6 472 C-6 471.34 -6 470.68 -6 470 C-4.89797241 469.81449585 -4.89797241 469.81449585 -3.77368164 469.62524414 C-1.10705136 469.02413155 0.94317132 468.21274537 3.37890625 466.99609375 C4.20672607 466.5892334 5.0345459 466.18237305 5.88745117 465.76318359 C6.77021729 465.32570801 7.6529834 464.88823242 8.5625 464.4375 C27.18603688 455.42949003 46.12119185 448.71654038 66 443 C67.1758667 442.6594458 67.1758667 442.6594458 68.37548828 442.31201172 C86.84955212 437.05152742 106.88845533 433.87974781 126 437 C126 437.99 126 438.98 126 440 C125.05125 439.855625 124.1025 439.71125 123.125 439.5625 C117.33314246 439.58594882 113.18534436 443.35383044 109 447 C102.12844437 454.084215 96.38361891 463.77609537 95.8125 473.82421875 C96.52453113 482.08674661 102.43583486 489.24160322 108 495 C108.99 495.33 109.98 495.66 111 496 C111 496.66 111 497.32 111 498 C119.29551546 499.41200263 127.42524422 500.33879689 135 496 C140.47052909 491.93911236 144.70860306 487.34016103 148.609375 481.7890625 C150 480 150 480 152.9375 477.6875 C177.31456033 458.4391199 189.15378125 406.21582686 195.8125 377.625 C196.00755127 376.79452148 196.20260254 375.96404297 196.40356445 375.10839844 C199.41632028 361.46262127 200.39743784 347.54683833 201.125 333.625 C201.16669312 332.84785645 201.20838623 332.07071289 201.25134277 331.27001953 C202.66959209 304.48056184 203.26884951 278.03228844 196 252 C195.70738281 250.94055176 195.41476562 249.88110352 195.11328125 248.78955078 C186.45305843 217.8070046 174.74453049 188.10033753 159 160 C158.67 160 158.34 160 158 160 Z " fill="#F7F8F8" transform="translate(1037,26)"/>
<path d="M0 0 C-0.41639059 4.85789025 -2.65034188 6.80692668 -6 10 C-7.51809039 11.48967925 -9.03343762 12.98215627 -10.546875 14.4765625 C-11.38726318 15.30623535 -12.22765137 16.1359082 -13.09350586 16.99072266 C-24.67137632 28.44341248 -24.67137632 28.44341248 -35 41 C-35.47421387 41.62487305 -35.94842773 42.24974609 -36.43701172 42.89355469 C-53.41426678 65.29706781 -65.90959326 89.0827956 -74 116 C-74.25418701 116.83990479 -74.50837402 117.67980957 -74.77026367 118.54516602 C-82.46303393 145.21689145 -83.91913135 172.42051394 -79.75 199.75 C-79.6479425 200.42450195 -79.54588501 201.09900391 -79.44073486 201.79394531 C-77.47606741 214.46331791 -74.12007664 225.67099528 -68 236.9375 C-67.57460938 237.74767578 -67.14921875 238.55785156 -66.7109375 239.39257812 C-59.00926081 253.81550334 -45.32012113 265.33268719 -31 273 C-29.62759869 273.75129208 -28.25520338 274.50259511 -26.8828125 275.25390625 C-25.38110383 276.06676073 -23.87849349 276.87795156 -22.375 277.6875 C-21.67020508 278.0685791 -20.96541016 278.4496582 -20.23925781 278.84228516 C-4.59138652 287.12666727 14.82753524 289.14097299 32 284 C44.74396649 278.80567702 57.25977445 267.50907455 62.88720703 254.90551758 C66.8897095 244.4549292 67.46078765 233.75872522 67.3125 222.6875 C67.30450936 221.32259264 67.29678055 219.95768372 67.28930664 218.59277344 C67.20845609 209.93652974 66.67504967 201.47417438 65.33984375 192.921875 C65 190 65 190 66 187 C65.34 186.34 64.68 185.68 64 185 C64.375 182.875 64.375 182.875 65 181 C65.99 181 66.98 181 68 181 C69.54387787 183.91550111 71.08466243 186.83262712 72.625 189.75 C73.05167969 190.55566406 73.47835937 191.36132812 73.91796875 192.19140625 C75.28848575 194.7892519 76.64647098 197.39326399 78 200 C78.49467773 200.94641357 78.98935547 201.89282715 79.49902344 202.86791992 C83.16737566 210.01956175 86.23144582 217.26939346 89 224.8125 C89.43078857 225.98611084 89.86157715 227.15972168 90.30541992 228.36889648 C102.03496058 260.98913452 106.76878504 295.73246446 111 330 C111.13486816 331.01489502 111.13486816 331.01489502 111.27246094 332.05029297 C112.29935763 340.28344723 112.57215349 348.59383019 113 356.875 C113.16420729 360.03919741 113.33051431 363.20326827 113.5 366.3671875 C113.54088745 367.13394302 113.5817749 367.90069855 113.62390137 368.69068909 C113.84146779 372.62525587 114.12354705 376.53666536 114.53125 380.45703125 C115.40523324 389.38121944 115.36730747 398.38435315 115.55224609 407.34350586 C115.60421299 409.79810739 115.66131141 412.2525526 115.71875 414.70703125 C115.73911316 415.82281303 115.73911316 415.82281303 115.7598877 416.96113586 C115.83298523 420.04292349 116.00085565 423.00512117 116.50927734 426.0480957 C117.09593549 429.57709252 117.12970925 432.94627274 117.1328125 436.5234375 C117.13424759 437.58094711 117.13424759 437.58094711 117.13571167 438.65982056 C117.1363888 440.14398285 117.13456727 441.62814817 117.13037109 443.11230469 C117.12503229 445.36139726 117.13032371 447.61028869 117.13671875 449.859375 C117.13605757 451.30989627 117.13477559 452.76041741 117.1328125 454.2109375 C117.13168457 455.51337402 117.13055664 456.81581055 117.12939453 458.15771484 C117.01813236 461.46157164 116.68064232 464.63942027 116.23580933 467.91140747 C115.80495965 471.72749662 115.78218366 475.55382958 115.71875 479.390625 C115.69113586 480.69117828 115.69113586 480.69117828 115.66296387 482.01800537 C115.58492201 485.69450595 115.51641105 489.37116543 115.44775391 493.04785156 C115.39596679 495.7455325 115.33878023 498.4430614 115.28125 501.140625 C115.26088684 502.38443939 115.26088684 502.38443939 115.2401123 503.65338135 C115.22339478 504.42808777 115.20667725 505.20279419 115.18945312 506.00097656 C115.17692505 506.67856018 115.16439697 507.3561438 115.15148926 508.05426025 C115 510 115 510 114.48875427 512.04057312 C113.74878656 515.00712032 113.99204643 517.95092667 114 521 C111.06406977 547.73241738 104.78569895 575.66342465 91 599 C90.34 599 89.68 599 89 599 C86.33627817 589.68798072 86.56883596 578.86232807 91 570 C91.98172148 563.12794965 92.29606095 556.22607079 92.60742188 549.296875 C92.6625293 548.16572266 92.6625293 548.16572266 92.71875 547.01171875 C92.74904297 546.33584717 92.77933594 545.65997559 92.81054688 544.96362305 C93 543 93 543 93.50268555 541.08520508 C99.39043156 516.39829359 90.32223536 483.33904768 77.87109375 461.84765625 C69.93428618 449.76846476 59.62338227 439.51863909 48 431 C47.13503906 430.34128906 46.27007813 429.68257812 45.37890625 429.00390625 C25.7870774 414.30308715 -1.18938431 404.52114141 -26.05859375 407.46484375 C-35.7950221 409.23627892 -45.40386296 411.7149937 -51.48828125 420.03515625 C-57.66784743 430.37089083 -59.56845061 440.92595124 -56.828125 452.6640625 C-56.3142002 454.65421007 -55.78797466 456.64121843 -55.25 458.625 C-54.73414721 460.59629457 -54.21852696 462.56765001 -53.703125 464.5390625 C-53.42662109 465.57345459 -53.15011719 466.60784668 -52.86523438 467.67358398 C-52.26697173 469.97362027 -51.69713527 472.28117003 -51.15039062 474.59399414 C-48.43368034 486.02778201 -44.81886077 497.07844613 -41 508.1875 C-40.67152069 509.14822418 -40.34304138 510.10894836 -40.00460815 511.0987854 C-32.52369592 532.92729745 -24.0858155 554.24818393 -13.9609375 575 C-12.93569809 577.13383161 -11.94947951 579.28286699 -10.96875 581.4375 C-2.77600998 599.33241663 7.12778031 616.19885006 17.60742188 632.83911133 C20.41162372 637.32024309 22.99222819 641.77328706 25.25 646.5625 C28.3208256 653.02498372 32.59030306 658.39946837 37 664 C38.67849427 666.15778685 40.3416173 668.32673915 42 670.5 C42.7425 671.4590625 43.485 672.418125 44.25 673.40625 C46 676 46 676 46.5625 678.28125 C46.706875 678.8484375 46.85125 679.415625 47 680 C47.99 680.33 48.98 680.66 50 681 C51.75390625 682.92578125 51.75390625 682.92578125 53.5625 685.3125 C54.46162109 686.48232422 54.46162109 686.48232422 55.37890625 687.67578125 C57 690 57 690 58.02734375 692.23046875 C58.93460732 694.35544799 58.93460732 694.35544799 62 695 C63.82421875 696.99609375 63.82421875 696.99609375 65.6875 699.4375 C66.31011719 700.24058594 66.93273437 701.04367187 67.57421875 701.87109375 C69 704 69 704 69 706 C69.66 706 70.32 706 71 706 C72.6875 707.625 72.6875 707.625 74 710 C73.6875 713.25 73.6875 713.25 73 716 C72.01 716 71.02 716 70 716 C70 715.01 70 714.02 70 713 C69.16082031 712.88205078 69.16082031 712.88205078 68.3046875 712.76171875 C62.68739731 710.90515674 58.19841302 705.07289847 54 701 C53.1642041 700.19143555 52.3284082 699.38287109 51.46728516 698.54980469 C41.08218001 688.45679785 30.91204904 678.42964914 22.31005859 666.73779297 C19.7242754 663.30775108 16.97333129 660.00854197 14.25 656.6875 C10.86069294 652.54016807 7.49642411 648.38593164 4.25 644.125 C1.82524138 640.95600854 -0.78079813 638.04494832 -3.5 635.125 C-7.27864667 630.98830897 -10.26522064 626.71007023 -13.1574707 621.92211914 C-14.89193782 619.17137886 -16.7408493 616.59725328 -18.6953125 614 C-23.30033488 607.71455954 -27.32102881 601.11907824 -31.3125 594.4375 C-32.06001403 593.1947477 -32.80806743 591.95231968 -33.55664062 590.71020508 C-35.03265104 588.26040696 -36.50659931 585.80938866 -37.97900391 583.35742188 C-40.62998607 578.95342252 -43.31203947 574.56898307 -46 570.1875 C-46.86099447 568.77753751 -47.72168234 567.36738775 -48.58203125 565.95703125 C-50.17560756 563.34524825 -51.77845197 560.73947574 -53.38671875 558.13671875 C-57.69097116 551.12412192 -61.58370289 544.02417676 -65.19213867 536.62841797 C-67.3842898 532.15417005 -69.80617465 527.92050165 -72.4375 523.6875 C-74.855795 519.5280326 -76.92328293 515.20084315 -79.03686523 510.88061523 C-80.87969499 507.14343575 -82.8107491 503.57523141 -85.0625 500.0625 C-88.18362981 495.05338431 -90.311896 489.71442839 -92.46508789 484.23852539 C-94.14123791 479.98681567 -96.00055038 475.91348785 -98.08056641 471.84423828 C-99.31661444 469.36492154 -100.35020149 466.8228984 -101.375 464.25 C-102.99382742 460.27427795 -104.7663285 456.52072254 -106.8125 452.75 C-110.82633656 444.8869971 -113.302056 436.47897997 -116.0078125 428.09765625 C-117.41238806 423.74884838 -118.90986162 419.45255167 -120.49487305 415.16699219 C-129.50913134 390.58705586 -136.32969055 364.74593148 -141 339 C-141.17313721 338.09000244 -141.34627441 337.18000488 -141.5246582 336.24243164 C-143.22617683 327.20032182 -144.17026381 318.15713376 -145 309 C-145.12632812 307.69289063 -145.25265625 306.38578125 -145.3828125 305.0390625 C-148.80903356 260.32248503 -143.65935191 208.46146701 -126 167 C-125.12871742 164.92586056 -124.25764187 162.85163415 -123.38671875 160.77734375 C-121.47261384 156.23265561 -119.54297858 151.69490858 -117.60546875 147.16015625 C-115.59028036 142.4270067 -113.6692965 137.67214821 -111.8125 132.875 C-108.69852109 124.9958257 -104.91581179 117.50376911 -101 110 C-100.49597656 109.02289063 -99.99195313 108.04578125 -99.47265625 107.0390625 C-93.7316294 96.19313366 -86.96774561 86.08167044 -79.52734375 76.33984375 C-76.38518896 72.2155258 -73.35013497 68.01407242 -70.3125 63.8125 C-69.77786133 63.07612305 -69.24322266 62.33974609 -68.69238281 61.58105469 C-66.0225541 57.88424177 -63.43652171 54.15827207 -60.94921875 50.3359375 C-58.41350095 46.50772811 -55.66659735 43.12952435 -52.5 39.8125 C-51.98937012 39.27061035 -51.47874023 38.7287207 -50.95263672 38.17041016 C-49.31066746 36.43818466 -47.65640787 34.71841502 -46 33 C-45.4421582 32.41492676 -44.88431641 31.82985352 -44.30957031 31.22705078 C-36.58169705 23.14791055 -28.54207136 15.95124635 -19.61328125 9.22851562 C-16.31264256 6.71507527 -13.11211886 4.07440106 -9.890625 1.4609375 C-6.26184052 -1.34312324 -4.42866125 -0.8664772 0 0 Z M-107 276 C-112.6341346 284.61691175 -114.51629718 292.16239916 -114.375 302.375 C-114.36557373 303.43138672 -114.35614746 304.48777344 -114.34643555 305.57617188 C-114.05788372 320.77859978 -111.01888364 334.70633138 -106 349 C-105.7637793 349.68900391 -105.52755859 350.37800781 -105.28417969 351.08789062 C-100.8516083 363.94056749 -95.44199356 378.58941128 -82.4375 385.0625 C-78.36717775 386.17258789 -76.05351207 386.17920351 -72 385 C-67.01861367 381.7429397 -64.7077363 378.69245434 -63 373 C-62.35147051 368.34019555 -62.39011685 365.10682497 -64.6875 360.9375 C-66.85398506 358.76052731 -66.85398506 358.76052731 -69.75 358.6875 C-70.4925 358.790625 -71.235 358.89375 -72 359 C-72 358.01 -72 357.02 -72 356 C-40.03714911 349.67519558 -13.25240392 359.52379304 15 374 C15.93739014 374.47816162 16.87478027 374.95632324 17.84057617 375.44897461 C23.81927342 378.5922114 29.041087 382.07300954 34.1875 386.4375 C34.87094482 387.0051709 35.55438965 387.5728418 36.25854492 388.15771484 C38.18189784 389.76092967 40.09356661 391.37672648 42 393 C42.88945313 393.75667969 43.77890625 394.51335937 44.6953125 395.29296875 C49.42081271 399.3820086 49.42081271 399.3820086 51.57421875 401.6796875 C52.92070566 403.22648271 52.92070566 403.22648271 55 403 C55.226875 403.556875 55.45375 404.11375 55.6875 404.6875 C57.36844025 407.64915664 59.56771872 409.61643394 62 412 C73.40415865 423.44071044 84.15798019 436.83602979 90.16796875 451.96875 C91.02484723 454.25168332 91.02484723 454.25168332 93 457 C95.57206118 416.51385179 70.60038801 364.89792607 45 335 C44.47148438 334.36191406 43.94296875 333.72382813 43.3984375 333.06640625 C37.81590826 326.86836738 30.22144164 322.99969074 23 319 C21.48599609 318.14148438 21.48599609 318.14148438 19.94140625 317.265625 C14.76047624 315.03638022 9.52472565 315.23579302 4 316 C1.14539577 317.3595834 0.08322136 318.51170782 -2 321 C-2.33 321.99 -2.66 322.98 -3 324 C-22.44841601 321.51241191 -43.73810783 301.76736786 -56.86328125 288.1171875 C-60.94971102 284.06811084 -65.49326097 280.56512929 -70 277 C-70.83273437 276.32324219 -71.66546875 275.64648438 -72.5234375 274.94921875 C-73.29945313 274.32660156 -74.07546875 273.70398438 -74.875 273.0625 C-75.55304688 272.51722656 -76.23109375 271.97195313 -76.9296875 271.41015625 C-87.13215773 264.46092653 -98.65837153 267.89008343 -107 276 Z " fill="#F7F8F8" transform="translate(517,137)"/>
<path d="M0 0 C1.4800841 0.11362262 2.95910074 0.24122908 4.4375 0.375 C5.26121094 0.44460937 6.08492187 0.51421875 6.93359375 0.5859375 C7.95646484 0.79089844 7.95646484 0.79089844 9 1 C9.495 1.99 9.495 1.99 10 3 C10.86625 3.2475 11.7325 3.495 12.625 3.75 C17.23231637 5.45641347 21.74655542 8.49311084 24 13 C25.64363134 13.72159424 27.31050386 14.39351421 29 15 C29 15.66 29 16.32 29 17 C29.721875 17.226875 30.44375 17.45375 31.1875 17.6875 C34.56432417 19.26335128 36.55767039 21.20876616 39 24 C39 24.66 39 25.32 39 26 C39.5775 26.0825 40.155 26.165 40.75 26.25 C43.6539336 27.21797787 45.03740604 28.68694284 47 31 C47 31.66 47 32.32 47 33 C47.52980469 33.20625 48.05960938 33.4125 48.60546875 33.625 C52.01818739 35.58466878 54.55517402 38.21527153 57.3125 41 C58.18733032 41.88220215 58.18733032 41.88220215 59.07983398 42.78222656 C63.68431608 47.51209255 67.39475883 52.47399609 71 58 C72.85417321 60.70221157 74.73790101 63.383211 76.625 66.0625 C77.13683838 66.79267334 77.64867676 67.52284668 78.17602539 68.27514648 C81.29456993 72.69232247 84.52454579 76.99133555 87.87011719 81.23852539 C98.16451114 94.33781788 106.71422582 108.38511894 113.48046875 123.61328125 C114.94243954 126.87170972 116.536861 130.02138599 118.1875 133.1875 C120.63202625 138.01834949 122.38625067 142.86039147 124.015625 148.015625 C126.16250709 154.52442626 129.01421945 160.76206707 131.76953125 167.03125 C132.07656982 167.73024414 132.3836084 168.42923828 132.69995117 169.14941406 C133.29767873 170.50672414 133.8979278 171.86292785 134.5012207 173.21777344 C157.61125814 225.47578516 161.26615617 295.63491882 148 351 C147.50525232 353.19893606 147.01189715 355.39818566 146.51953125 357.59765625 C139.84034051 386.9628601 130.91215973 415.31785784 120.6875 443.625 C120.42079498 444.36644257 120.15408997 445.10788513 119.87930298 445.87179565 C119.11539829 447.99169959 118.34576329 450.1094289 117.57421875 452.2265625 C117.12651123 453.45971191 116.67880371 454.69286133 116.2175293 455.96337891 C115 459 115 459 113 462 C112.34 462 111.68 462 111 462 C110.89582764 463.00901367 110.79165527 464.01802734 110.68432617 465.05761719 C110.10811925 469.05551126 108.72873591 472.39513774 107.05078125 476.078125 C106.60813179 477.05625153 106.60813179 477.05625153 106.15653992 478.05413818 C105.53284663 479.42751656 104.904828 480.7989381 104.27270508 482.16845703 C103.32340692 484.22635587 102.38813798 486.29016481 101.45507812 488.35546875 C98.36515794 495.15146153 95.12942539 501.7983321 91.48510742 508.31884766 C89.86172912 511.24962861 88.31622554 514.21341116 86.78125 517.19140625 C86.24113281 518.23876953 85.70101562 519.28613281 85.14453125 520.36523438 C84.04658793 522.4998344 82.95023775 524.6352546 81.85546875 526.77148438 C78.87398699 532.54588162 75.7541036 538.16909979 72.36669922 543.71459961 C70.36206218 547.06676241 68.5919546 550.52489489 66.8125 554 C62.45445578 562.3482076 57.63063955 570.34743271 52.65283203 578.33740234 C50.77659232 581.35989426 48.91676589 584.39214912 47.05859375 587.42578125 C43.05517573 593.96054426 39.03300057 600.483438 35 607 C34.53819336 607.74862305 34.07638672 608.49724609 33.60058594 609.26855469 C25.12039941 622.97049702 15.30841456 635.63364424 5 648 C0.16719754 653.86314613 -4.61335139 659.7543104 -9.265625 665.76171875 C-14.90637955 673.04134118 -20.725407 680.01020844 -26.99609375 686.75 C-29.02328817 688.82915215 -29.02328817 688.82915215 -30 691 C-30.66 691 -31.32 691 -32 691 C-32.309375 691.8353125 -32.309375 691.8353125 -32.625 692.6875 C-34.16058874 695.27008106 -36.02993228 696.74375086 -38.3671875 698.58984375 C-40.07834906 700.06766509 -41.44366679 701.62689633 -42.875 703.375 C-46.20296782 707.38428407 -50.01322371 710.66395785 -54 714 C-54.928125 714.825 -55.85625 715.65 -56.8125 716.5 C-57.534375 716.995 -58.25625 717.49 -59 718 C-59.99 717.67 -60.98 717.34 -62 717 C-63.0171801 714.1877962 -63.46476229 712.89007352 -63 710 C-61.07951465 707.53344893 -58.91329902 705.55667926 -56.60546875 703.44921875 C-52.26206288 699.366287 -48.70024001 694.66005182 -45 690 C-44.33097656 689.175 -43.66195312 688.35 -42.97265625 687.5 C-37.81310653 681.12463559 -32.84748224 674.61548518 -28 668 C-26.90171875 666.50533203 -26.90171875 666.50533203 -25.78125 664.98046875 C-21.06936414 658.38548766 -17.0093425 651.61029639 -13.14819336 644.48657227 C-9.50660748 637.80285838 -5.58410279 631.31196049 -1.625 624.8125 C30.85818629 571.10062477 54.81090583 509.12155661 69 448 C69.55453343 445.70438986 70.10922478 443.40881786 70.6640625 441.11328125 C74.62010476 424.41552392 77.9336799 407.58422205 81.25 390.75 C81.46468933 389.6635318 81.67937866 388.5770636 81.90057373 387.45767212 C84.55038164 374.00991603 86.98148298 360.55750451 89 347 C89.82870605 346.96495361 90.65741211 346.92990723 91.51123047 346.89379883 C99.34729447 346.50872944 106.46463109 345.90012919 111.96875 339.828125 C122.26604584 325.77842475 123.72484603 311.4041001 121.5390625 294.41796875 C119.90474341 287.54421494 116.86832684 282.7630906 111.11328125 278.65234375 C107.12084911 276.33845872 103.80318823 275.3976695 99.12890625 276.33984375 C85.51033208 280.56285115 78.04041595 290.1314089 71 302 C70.64381592 302.52215088 70.28763184 303.04430176 69.9206543 303.58227539 C65.39194138 310.34462764 62.43786556 317.83677147 59.3125 325.3125 C59.0056427 326.04063904 58.6987854 326.76877808 58.38262939 327.51898193 C52.96476339 340.38330048 48.04221925 353.39704813 43.27148438 366.51464844 C31.60636968 398.49068097 18.83849992 429.34463422 -5.28125 454.17578125 C-7.24989252 456.22079352 -8.99973323 458.22175041 -10.7734375 460.41796875 C-14.36808035 464.652523 -18.62830619 467.77969236 -23.125 471 C-23.92292969 471.59683594 -24.72085938 472.19367188 -25.54296875 472.80859375 C-26.31511719 473.36675781 -27.08726562 473.92492187 -27.8828125 474.5 C-28.57777832 475.0053125 -29.27274414 475.510625 -29.98876953 476.03125 C-32 477 -32 477 -34.25732422 476.65625 C-36 476 -36 476 -36.76953125 474.32421875 C-37 472 -37 472 -35.26171875 469.58203125 C-33.98748047 468.21111328 -33.98748047 468.21111328 -32.6875 466.8125 C-7.72413066 438.43980211 0.06952152 397.94544735 -2.2421875 361.14453125 C-3.49940239 349.38059196 -7.98093473 340.78040669 -17.125 333.25 C-23.13951684 329.2403221 -31.27564379 330.64468829 -38 331.9375 C-44.94956856 333.83770296 -49.20143253 337.78270936 -54 343 C-54.62519531 343.66902344 -55.25039063 344.33804687 -55.89453125 345.02734375 C-68.61708488 359.98998583 -74.86633662 380.66373242 -77.359375 399.7578125 C-77.73227939 402.53688247 -78.2622861 404.91115058 -79.046875 407.63671875 C-80.02325457 411.08205814 -80.3341518 414.11761743 -80.5 417.6875 C-80.76121289 422.1234546 -81.17430933 426.3847677 -82 430.75 C-83.08491259 436.71300106 -83.40751078 442.63786207 -83.65820312 448.68261719 C-83.79270146 451.79666541 -83.9610744 454.77625444 -84.49609375 457.8515625 C-85.24762935 462.54720351 -85.32999064 467.25233107 -85.5 472 C-85.56938462 473.9376297 -85.6422058 475.87513992 -85.71875 477.8125 C-85.74904297 478.66457031 -85.77933594 479.51664063 -85.81054688 480.39453125 C-86 483 -86 483 -86.50927734 485.89990234 C-87.03863658 489.24408324 -87.12951561 492.40409617 -87.1328125 495.7890625 C-87.13410156 497.06007813 -87.13539063 498.33109375 -87.13671875 499.640625 C-87.13091797 501.61289062 -87.13091797 501.61289062 -87.125 503.625 C-87.1285651 504.96093845 -87.13246834 506.29687605 -87.13671875 507.6328125 C-87.13542969 508.90125 -87.13414062 510.1696875 -87.1328125 511.4765625 C-87.13168457 512.63236816 -87.13055664 513.78817383 -87.12939453 514.97900391 C-87.01946632 517.54551658 -86.66434489 519.54828907 -86 522 C-85.8795134 523.48566254 -85.80037986 524.97502819 -85.75390625 526.46484375 C-85.72256592 527.33608887 -85.69122559 528.20733398 -85.65893555 529.10498047 C-85.62711182 530.03971191 -85.59528809 530.97444336 -85.5625 531.9375 C-84.93093701 547.31017356 -83.54540991 562.43557199 -81.0625 577.625 C-80.90483154 578.59614746 -80.74716309 579.56729492 -80.5847168 580.56787109 C-79.59215264 586.36802794 -78.2645808 591.96269972 -76.58374023 597.60302734 C-76 600 -76 600 -76 604 C-76.66 604 -77.32 604 -78 604 C-78 604.99 -78 605.98 -78 607 C-78.99 607 -79.98 607 -81 607 C-109.62623844 548.78081463 -109.44650211 483.21278385 -107.6875 419.5 C-107.6683252 418.80065338 -107.64915039 418.10130676 -107.62939453 417.38076782 C-107.21354055 402.90868652 -106.22236404 388.48763346 -105.10424805 374.0546875 C-104.97551693 372.38413243 -104.84701588 370.71355961 -104.71875 369.04296875 C-104.65528885 368.22106049 -104.5918277 367.39915222 -104.52644348 366.55233765 C-104.07189353 360.47172382 -103.78344004 354.3927197 -103.53125 348.30078125 C-102.86706225 332.9974213 -100.66233127 317.97728742 -98.1875 302.875 C-98.05583435 302.06984955 -97.9241687 301.2646991 -97.78851318 300.43515015 C-91.43338412 261.76626682 -82.38662967 214.22596863 -57 183 C-56.01 183 -55.02 183 -54 183 C-53.63941693 189.27681649 -54.120628 194.44793713 -56.24609375 200.3828125 C-58.56548394 208.43458156 -58.25098736 216.99941997 -58.29516602 225.3059082 C-58.30662648 226.79786711 -58.32698333 228.28978697 -58.35668945 229.78149414 C-58.64726027 244.44152209 -56.85129956 257.77891634 -48 270 C-47.59523438 270.598125 -47.19046875 271.19625 -46.7734375 271.8125 C-43.5364201 276.10204453 -39.37768836 279.12442856 -35.0625 282.25 C-34.18464844 282.88711914 -34.18464844 282.88711914 -33.2890625 283.53710938 C-20.34812715 292.60152845 -3.06913829 292.93222685 12.2109375 290.421875 C22.12983502 288.09548112 30.41947904 283.29159262 39 278 C40.01191406 277.39800781 41.02382813 276.79601562 42.06640625 276.17578125 C51.35791592 270.50571347 59.84931314 263.97628938 66.66015625 255.43359375 C67.10230469 254.96050781 67.54445313 254.48742187 68 254 C68.66 254 69.32 254 70 254 C70.24105469 253.33613281 70.48210937 252.67226563 70.73046875 251.98828125 C72.01481674 248.96512366 73.51991396 246.19169489 75.12255859 243.33032227 C84.9828014 225.57419771 89.16688072 206.24732309 90 186 C90.07927734 184.10894531 90.07927734 184.10894531 90.16015625 182.1796875 C91.70343868 125.70211768 68.55100563 72.13000303 30.2421875 31.3203125 C28.94210402 29.97492995 27.62289541 28.64657013 26.2578125 27.3671875 C25 26 25 26 24 23 C23.01 22.67 22.02 22.34 21 22 C21 21.34 21 20.68 21 20 C20.34 20 19.68 20 19 20 C19 19.34 19 18.68 19 18 C17.68 17.34 16.36 16.68 15 16 C15 15.01 15 14.02 15 13 C14.4225 12.731875 13.845 12.46375 13.25 12.1875 C11 11 11 11 9.1875 9.625 C6.26868207 7.45673525 3.17544891 5.77092343 0 4 C0 2.68 0 1.36 0 0 Z " fill="#F7F7F7" transform="translate(760,132)"/>
<path d="M0 0 C0.66 0.33 1.32 0.66 2 1 C-4.33333333 7.33333333 -10.66666667 13.66666667 -17 20 C-17.54551514 20.58676514 -18.09103027 21.17353027 -18.65307617 21.77807617 C-20 23 -20 23 -22 23 C-18.64495113 14.98106452 -10.08035231 8.90456263 -3.59375 3.375 C-2.34946955 2.30150314 -1.16203041 1.16203041 0 0 Z " fill="#B4B3AF" transform="translate(966,537)"/>
<path d="M0 0 C1.53166168 4.08443115 0.63081652 7.79455657 0 12 C-0.33 10.68 -0.66 9.36 -1 8 C-1.99 8.495 -1.99 8.495 -3 9 C-3.65555119 11.52733235 -3.65555119 11.52733235 -4 14 C-4.66 14 -5.32 14 -6 14 C-6.17835515 9.45194365 -5.99785435 6.1205746 -4 2 C-3.01 2.33 -2.02 2.66 -1 3 C-0.67 2.01 -0.34 1.02 0 0 Z " fill="#ACAFB0" transform="translate(629,659)"/>
<path d="M0 0 C0.66 0.33 1.32 0.66 2 1 C-0.08024422 3.10729942 -2.16402239 5.21088873 -4.25 7.3125 C-4.83652344 7.90740234 -5.42304688 8.50230469 -6.02734375 9.11523438 C-8.87852816 11.98243668 -11.65112504 14.70386543 -15 17 C-15.66 16.67 -16.32 16.34 -17 16 C-16.0479279 14.99403703 -15.08812654 13.99538437 -14.125 13 C-13.32449219 12.1646875 -13.32449219 12.1646875 -12.5078125 11.3125 C-11 10 -11 10 -9 10 C-9 9.34 -9 8.68 -9 8 C-7.28515625 6.30859375 -7.28515625 6.30859375 -5.0625 4.4375 C-4.33160156 3.81746094 -3.60070312 3.19742188 -2.84765625 2.55859375 C-1.93306641 1.78708984 -1.93306641 1.78708984 -1 1 C-0.67 0.67 -0.34 0.34 0 0 Z " fill="#A2A19F" transform="translate(139,103)"/>
<path d="M0 0 C0 3 0 3 -1.79296875 5.19140625 C-2.58316406 5.97386719 -3.37335938 6.75632813 -4.1875 7.5625 C-4.96480469 8.34753906 -5.74210937 9.13257813 -6.54296875 9.94140625 C-8.98212714 11.98502544 -10.99742699 13.01336411 -14 14 C-9.72706118 8.76564995 -5.18419194 4.32893185 0 0 Z " fill="#B8B9B8" transform="translate(488,154)"/>
<path d="M0 0 C0.99 0 1.98 0 3 0 C4.125 2.25 4.125 2.25 5 5 C3.97192406 8.08422781 1.99797012 10.45712894 0 13 C0.20625 11.88625 0.4125 10.7725 0.625 9.625 C0.74875 8.42875 0.8725 7.2325 1 6 C0.34 5.34 -0.32 4.68 -1 4 C-0.625 1.875 -0.625 1.875 0 0 Z " fill="#D7D9D8" transform="translate(582,318)"/>
<path d="M0 0 C1.32 0.33 2.64 0.66 4 1 C3.625 3.4375 3.625 3.4375 3 6 C2.01 6.495 2.01 6.495 1 7 C-1.125 6.0625 -1.125 6.0625 -3 5 C-3 5.66 -3 6.32 -3 7 C-3.66 6.67 -4.32 6.34 -5 6 C-4.67 5.34 -4.34 4.68 -4 4 C-3.34 4 -2.68 4 -2 4 C-1.34 2.68 -0.68 1.36 0 0 Z " fill="#C0C2BF" transform="translate(359,249)"/>
<path d="M0 0 C2.97 0 5.94 0 9 0 C8.34 1.65 7.68 3.3 7 5 C4.37886292 5 2.49064888 4.68707555 0 4 C0 2.68 0 1.36 0 0 Z " fill="#C3C6C4" transform="translate(125,462)"/>
<path d="M0 0 C3.63 0.66 7.26 1.32 11 2 C11 2.99 11 3.98 11 5 C8.36 5.33 5.72 5.66 3 6 C2.814375 5.071875 2.814375 5.071875 2.625 4.125 C2.12802644 1.80879168 2.12802644 1.80879168 0 0 Z " fill="#C4C5C3" transform="translate(1152,461)"/>
<path d="M0 0 C0 3 0 3 -2.40625 5.69921875 C-3.4299968 6.70302243 -4.4616054 7.69885649 -5.5 8.6875 C-6.02464844 9.19861328 -6.54929687 9.70972656 -7.08984375 10.23632812 C-8.38660904 11.49772708 -9.69246117 12.74977212 -11 14 C-11.66 13.67 -12.32 13.34 -13 13 C-9.0580583 8.11950075 -4.88049925 3.9419417 0 0 Z " fill="#B2B4B3" transform="translate(121,120)"/>
<path d="M0 0 C0 4.07624109 -1.64202171 5.45313878 -4.265625 8.4140625 C-6.61159381 10.5592502 -8.92183219 11.34039261 -12 12 C-11.34 11.01 -10.68 10.02 -10 9 C-9.34 9 -8.68 9 -8 9 C-8 8.34 -8 7.68 -8 7 C-6.25 5.2734375 -6.25 5.2734375 -4 3.375 C-3.2575 2.74335937 -2.515 2.11171875 -1.75 1.4609375 C-1.1725 0.97882812 -0.595 0.49671875 0 0 Z " fill="#BBBBB9" transform="translate(1073,740)"/>
<path d="M0 0 C0.33 0 0.66 0 1 0 C1.33 1.65 1.66 3.3 2 5 C2.66 4.34 3.32 3.68 4 3 C4.33 4.32 4.66 5.64 5 7 C4.34 7 3.68 7 3 7 C2.67 9.64 2.34 12.28 2 15 C1.67 15 1.34 15 1 15 C-0.03590199 9.94997778 -0.10251672 5.12583611 0 0 Z " fill="#C4C6C6" transform="translate(657,663)"/>
<path d="M0 0 C2.31 0.66 4.62 1.32 7 2 C3.7321794 4.17854707 0.61941735 5.49760034 -3 7 C-3 5.68 -3 4.36 -3 3 C-2.34 3 -1.68 3 -1 3 C-0.67 2.01 -0.34 1.02 0 0 Z " fill="#C1C3C0" transform="translate(850,406)"/>
<path d="M0 0 C0 4.94025052 -4.01238054 7.98568812 -7.3125 11.375 C-7.869375 11.91125 -8.42625 12.4475 -9 13 C-9.66 12.67 -10.32 12.34 -11 12 C-3.70159453 3.55353075 -3.70159453 3.55353075 0 0 Z " fill="#BDBEBC" transform="translate(473,168)"/>
<path d="M0 0 C2.97 0.33 5.94 0.66 9 1 C5.31034483 4.68965517 5.31034483 4.68965517 2 5 C1.01 4.34 0.02 3.68 -1 3 C-0.67 2.01 -0.34 1.02 0 0 Z " fill="#DDE1DF" transform="translate(760,132)"/>
<path d="M0 0 C3.63094642 2.64960955 5.89851796 5.01824456 8 9 C5 9 5 9 3.17578125 7.46875 C2.56089844 6.8190625 1.94601562 6.169375 1.3125 5.5 C0.68988281 4.8503125 0.06726563 4.200625 -0.57421875 3.53125 C-1.04472656 3.0259375 -1.51523437 2.520625 -2 2 C-1.34 1.34 -0.68 0.68 0 0 Z " fill="#C3C2BE" transform="translate(789,158)"/>
<path d="M0 0 C0.99 0.33 1.98 0.66 3 1 C3.33 2.98 3.66 4.96 4 7 C0.1936543 6.32829194 -3.35206816 5.27253436 -7 4 C-4.21176345 2.9673198 -3.1322726 2.95490707 -0.25 3.9375 C0.4925 4.288125 1.235 4.63875 2 5 C2 4.01 2 3.02 2 2 C1.34 2 0.68 2 0 2 C0 1.34 0 0.68 0 0 Z " fill="#D9DDD8" transform="translate(262,781)"/>
<path d="M0 0 C2 3 2 3 3 5.5625 C3.86842753 8.12563162 3.86842753 8.12563162 6 10 C5.01 11.485 5.01 11.485 4 13 C3.34 13 2.68 13 2 13 C1.66127487 11.58461283 1.32925376 10.16762037 1 8.75 C0.814375 7.96109375 0.62875 7.1721875 0.4375 6.359375 C0 4 0 4 0 0 Z " fill="#D5D6D5" transform="translate(604,723)"/>
<path d="M0 0 C1 3 1 3 1 6 C1.66 6.66 2.32 7.32 3 8 C1.35 8.33 -0.3 8.66 -2 9 C-2.33 7.35 -2.66 5.7 -3 4 C-2.34 4 -1.68 4 -1 4 C-0.67 2.68 -0.34 1.36 0 0 Z " fill="#CACACB" transform="translate(1066,430)"/>
<path d="M0 0 C5.75 0.875 5.75 0.875 8 2 C7.34 3.32 6.68 4.64 6 6 C5.34 6 4.68 6 4 6 C4 5.34 4 4.68 4 4 C3.01 4 2.02 4 1 4 C0.67 2.68 0.34 1.36 0 0 Z " fill="#D4D6D4" transform="translate(258,21)"/>
<path d="M0 0 C0.33 0.99 0.66 1.98 1 3 C-1.97 5.31 -4.94 7.62 -8 10 C-8.66 9.67 -9.32 9.34 -10 9 C-6.7 6.03 -3.4 3.06 0 0 Z " fill="#B7B5B3" transform="translate(1060,752)"/>
<path d="M0 0 C0.33 0.66 0.66 1.32 1 2 C-1.31 5.3 -3.62 8.6 -6 12 C-6.66 11.67 -7.32 11.34 -8 11 C-5.36 7.37 -2.72 3.74 0 0 Z " fill="#BBBCBB" transform="translate(449,198)"/>
<path d="M0 0 C3.68754757 0.49831724 5.60490662 1.10067643 8 4 C7.67 4.99 7.34 5.98 7 7 C5.83040013 6.02433888 4.66438823 5.044375 3.5 4.0625 C2.8503125 3.51722656 2.200625 2.97195312 1.53125 2.41015625 C1.0259375 1.94480469 0.520625 1.47945313 0 1 C0 0.67 0 0.34 0 0 Z " fill="#C1C1BC" transform="translate(1080,67)"/>
<path d="M0 0 C-1.5830577 4.2742558 -4.50568404 6.26531794 -8 9 C-6.68994234 5.06982701 -4.75047804 0 0 0 Z " fill="#B1B1AF" transform="translate(1189,505)"/>
<path d="M0 0 C0.99 0 1.98 0 3 0 C3 1.32 3 2.64 3 4 C1.35 4.66 -0.3 5.32 -2 6 C-2 3 -2 3 0 0 Z " fill="#CFD2D2" transform="translate(703,315)"/>
<path d="M0 0 C0.66 0.33 1.32 0.66 2 1 C-2.82142857 7.29464286 -2.82142857 7.29464286 -7 8 C-6.02133662 6.85373678 -5.04205413 5.70800212 -4.0625 4.5625 C-3.51722656 3.92441406 -2.97195313 3.28632813 -2.41015625 2.62890625 C-1.63204305 1.73008851 -0.84063472 0.84063472 0 0 Z " fill="#ADADAA" transform="translate(1141,330)"/>
<path d="M0 0 C0.33 0.99 0.66 1.98 1 3 C0.01 3.33 -0.98 3.66 -2 4 C-3.20882096 6.00016466 -3.20882096 6.00016466 -4 8 C-4.66 8 -5.32 8 -6 8 C-4.55746343 4.63408134 -2.66735273 2.48952921 0 0 Z " fill="#BCBDBC" transform="translate(703,836)"/>
<path d="M0 0 C0.33 0.66 0.66 1.32 1 2 C-0.61000397 5.13950774 -2.38499232 7.63404067 -5 10 C-5.66 9.67 -6.32 9.34 -7 9 C-4.69 6.03 -2.38 3.06 0 0 Z " fill="#A8A9A7" transform="translate(720,816)"/>
<path d="M0 0 C0.66 1.32 1.32 2.64 2 4 C0.35 5.98 -1.3 7.96 -3 10 C-3.33 9.34 -3.66 8.68 -4 8 C-3.22265625 6.0546875 -3.22265625 6.0546875 -2.0625 3.875 C-1.49208984 2.78832031 -1.49208984 2.78832031 -0.91015625 1.6796875 C-0.60980469 1.12539063 -0.30945313 0.57109375 0 0 Z " fill="#B6B7B6" transform="translate(769,738)"/>
<path d="M0 0 C0.66 0.66 1.32 1.32 2 2 C-1.465 4.97 -1.465 4.97 -5 8 C-5.66 7.67 -6.32 7.34 -7 7 C-4.69 4.69 -2.38 2.38 0 0 Z " fill="#A5A5A3" transform="translate(1081,732)"/>
<path d="M0 0 C0.33 0.99 0.66 1.98 1 3 C-0.81725675 5.82684384 -2.03937946 7.65310925 -5.25 8.8125 C-5.8275 8.874375 -6.405 8.93625 -7 9 C-5.625 7 -5.625 7 -4 5 C-3.34 5 -2.68 5 -2 5 C-1.34 3.35 -0.68 1.7 0 0 Z " fill="#A5A4A2" transform="translate(832,381)"/>
<path d="M0 0 C0.33 0.99 0.66 1.98 1 3 C-0.8125 5.6875 -0.8125 5.6875 -3 8 C-3.66 8 -4.32 8 -5 8 C-3.8141763 4.62496331 -2.72426311 2.35277269 0 0 Z " fill="#B7B8B5" transform="translate(738,792)"/>
<path d="M0 0 C2.97 0 5.94 0 9 0 C9 1.65 9 3.3 9 5 C8.67 4.34 8.34 3.68 8 3 C7.34 3 6.68 3 6 3 C6 2.34 6 1.68 6 1 C4.02 1 2.04 1 0 1 C0 0.67 0 0.34 0 0 Z " fill="#B0B1AF" transform="translate(950,634)"/>
</svg>
